# Blender v3.1.2 OBJ File: 'calendario.blend'
# www.blender.org
mtllib calendario.mtl
o calendario_Plane.001
v 2.120173 4.760922 -8.795533
v 4.200163 4.808239 -8.818667
v 2.085727 6.278420 -8.788713
v 4.165718 6.325737 -8.811846
v 2.119768 4.761075 -8.831613
v 4.199759 4.808392 -8.854746
v 2.085323 6.278573 -8.824791
v 4.165314 6.325891 -8.847924
vt 0.000099 0.000098
vt 0.969563 0.000099
vt 0.969563 0.999901
vt 0.000098 0.999901
vt 0.000099 0.000098
vt 0.000098 0.999901
vt 0.969563 0.999901
vt 0.969563 0.000099
vn 0.0112 -0.0042 0.9999
vn -0.0112 0.0042 -0.9999
vn -0.9997 -0.0227 0.0111
vn 0.0227 -0.9997 -0.0045
vn 0.9997 0.0227 -0.0111
vn -0.0227 0.9997 0.0045
g calendario_Plane.001_Material.002
usemtl Material.002
s off
f 1/1/1 2/2/1 4/3/1 3/4/1
f 5/5/2 7/6/2 8/7/2 6/8/2
f 1/1/3 3/4/3 7/6/3 5/5/3
f 2/2/4 1/1/4 5/5/4 6/8/4
f 4/3/5 2/2/5 6/8/5 8/7/5
f 3/4/6 4/3/6 8/7/6 7/6/6
