# Blender 3.6.0
# www.blender.org
mtllib glass.mtl
o vetro
v 5.512837 2.913167 5.078377
v 5.512837 2.913167 2.119280
v 5.512837 6.059176 2.119279
v 5.512837 6.059176 5.078377
v 5.512837 6.059176 2.119279
v 5.528365 6.059176 2.119279
v 5.528365 6.059176 2.119279
v 5.528365 2.913167 2.119280
v 5.528365 2.913167 5.078377
v 5.528365 6.059176 5.078377
vn 1.0000 -0.0000 -0.0000
vn -1.0000 -0.0000 -0.0000
vn -0.0000 -0.0000 -1.0000
vn -0.0000 1.0000 -0.0000
vn -0.0000 -0.0000 1.0000
vn -0.0000 -1.0000 -0.0000
vt 0.000000 0.000000
s 0
usemtl vetro
f 4/1/1 1/1/1 2/1/1 5/1/1 3/1/1
f 10/1/2 6/1/2 7/1/2 8/1/2 9/1/2
f 1/1/3 4/1/3 10/1/3 9/1/3
f 2/1/4 1/1/4 9/1/4 8/1/4
f 3/1/5 5/1/5 7/1/5 6/1/5
f 4/1/6 3/1/6 6/1/6 10/1/6
f 5/1/5 2/1/5 8/1/5 7/1/5
