# Blender 3.6.0
# www.blender.org
mtllib lancettadxL.mtl
o Plane.003
v -0.000000 0.085061 0.000002
v -0.000000 -0.000040 -0.004945
v -0.000000 -0.000040 0.004949
v 0.001000 -0.000040 -0.004945
v 0.001000 0.085061 0.000002
v 0.001000 -0.000040 0.004949
vn 1.0000 -0.0000 -0.0000
vn -1.0000 -0.0000 -0.0000
vn -0.0000 -0.0580 -0.9983
vn -0.0000 1.0000 -0.0000
vn -0.0000 -0.0580 0.9983
vt 1.000000 0.000000
vt 0.000000 1.000000
vt 1.000000 1.000000
s 0
usemtl Material.001
f 1/1/1 3/3/1 2/2/1
f 5/1/2 4/2/2 6/3/2
f 1/1/3 5/1/3 6/3/3 3/3/3
f 3/3/4 6/3/4 4/2/4 2/2/4
f 2/2/5 4/2/5 5/1/5 1/1/5
