# Blender v3.1.2 OBJ File: 'portaOggetti.blend'
# www.blender.org
mtllib portaOggetti.mtl
o base_Plane
v 3.694167 -0.013451 -7.767936
v 1.697449 -0.013451 -7.767936
v 3.694167 -0.013451 -7.612335
v 1.697449 -0.013451 -7.612335
v 3.694167 0.083509 -7.767936
v 1.697449 0.083509 -7.767936
v 3.694167 0.083509 -7.612335
v 1.697449 0.083509 -7.612335
v 1.939777 -0.013451 -7.767936
v 1.939777 -0.013451 -7.612335
v 1.939777 0.083509 -7.767936
v 1.939777 0.083509 -7.612335
v 3.453180 -0.013451 -7.612335
v 3.453180 0.083509 -7.612335
v 3.453180 -0.013451 -7.767936
v 3.453180 0.083509 -7.767936
v 3.453180 -0.013451 -7.060574
v 3.694167 -0.013451 -7.060574
v 3.453180 0.083509 -7.060574
v 3.694167 0.083509 -7.060574
v 1.697449 0.083509 -7.060574
v 1.697449 -0.013451 -7.060574
v 1.939777 -0.013451 -7.060574
v 1.939777 0.083509 -7.060574
v 1.939777 -0.013451 -8.310667
v 1.697449 -0.013451 -8.310667
v 1.939777 0.083509 -8.310667
v 1.697449 0.083509 -8.310667
v 3.694167 0.083509 -8.310667
v 3.694167 -0.013451 -8.310667
v 3.453180 -0.013451 -8.310667
v 3.453180 0.083509 -8.310667
v 1.697449 0.083509 -7.225965
v 1.939777 0.083509 -7.225965
v 1.939777 -0.013451 -7.225965
v 1.697449 -0.013451 -7.225965
v 1.939777 0.083509 -8.139237
v 1.697449 0.083509 -8.139237
v 1.697449 -0.013451 -8.139237
v 1.939777 -0.013451 -8.139237
v 3.453180 0.083509 -8.129551
v 3.453180 -0.013451 -8.129551
v 3.694167 -0.013451 -8.129551
v 3.694167 0.083509 -8.129551
v 3.694167 -0.013451 -7.232684
v 3.453180 -0.013451 -7.232684
v 3.453180 0.083509 -7.232684
v 3.694167 0.083509 -7.232684
v 3.453180 2.187875 -7.060574
v 3.694167 2.187875 -7.060574
v 1.697449 2.187875 -7.060574
v 1.939777 2.187875 -7.060574
v 1.697449 2.187875 -7.225965
v 3.694167 2.187875 -7.232684
v 1.939777 2.187875 -8.310667
v 1.697449 2.187875 -8.310667
v 3.694167 2.187875 -8.310667
v 3.453180 2.187875 -8.310667
v 1.939777 2.187875 -8.139237
v 3.453180 2.187875 -8.129551
v 1.939777 2.187875 -7.225965
v 1.697449 2.187875 -8.139237
v 3.694167 2.187875 -8.129551
v 3.453180 2.187875 -7.232684
vt 0.879308 0.000000
vt 0.879308 1.000000
vt 1.000000 1.000000
vt 1.000000 0.000000
vt 0.879308 0.000000
vt 1.000000 0.000000
vt 1.000000 1.000000
vt 0.879308 1.000000
vt 0.000000 0.000000
vt 0.121363 0.000000
vt 0.121363 0.000000
vt 0.000000 0.000000
vt 0.879308 1.000000
vt 0.879308 1.000000
vt 0.879308 1.000000
vt 0.879308 1.000000
vt 0.000000 1.000000
vt 0.000000 0.000000
vt 0.000000 0.000000
vt 0.000000 1.000000
vt 0.121363 1.000000
vt 0.121363 1.000000
vt 1.000000 0.000000
vt 0.879308 0.000000
vt 0.879308 0.000000
vt 1.000000 0.000000
vt 0.121363 0.000000
vt 0.121363 0.000000
vt 0.000000 0.000000
vt 0.000000 0.000000
vt 0.000000 0.000000
vt 0.000000 0.000000
vt 0.879308 0.000000
vt 1.000000 0.000000
vt 1.000000 0.000000
vt 0.879308 0.000000
vt 0.121363 0.000000
vt 0.879308 0.000000
vt 1.000000 0.000000
vt 0.121363 0.000000
vt 1.000000 0.000000
vt 0.121363 1.000000
vt 0.000000 1.000000
vt 0.000000 1.000000
vt 0.121363 1.000000
vt 1.000000 1.000000
vt 1.000000 1.000000
vt 1.000000 1.000000
vt 0.121363 1.000000
vt 0.000000 1.000000
vt 1.000000 1.000000
vt 0.121363 1.000000
vt 1.000000 1.000000
vt 0.879308 1.000000
vt 0.000000 1.000000
vt 0.121363 0.000000
vt 0.121363 0.000000
vt 0.000000 1.000000
vt 0.121363 1.000000
vt 0.121363 1.000000
vt 0.000000 1.000000
vt 0.879308 0.000000
vt 1.000000 1.000000
vt 0.879308 1.000000
vn 0.0000 -1.0000 0.0000
vn 0.0000 1.0000 0.0000
vn -1.0000 0.0000 0.0000
vn 1.0000 0.0000 0.0000
vn 0.0000 0.0000 -1.0000
vn 0.0000 0.0000 1.0000
g base_Plane_Material.009
usemtl Material.009
s off
f 13/1/1 15/2/1 1/3/1 3/4/1
f 14/5/2 7/6/2 5/7/2 16/8/2
f 36/9/1 35/10/1 23/11/1 22/12/1
f 42/13/3 41/14/3 32/15/3 31/16/3
f 2/17/3 4/18/3 8/19/3 6/20/3
f 3/4/4 1/3/4 5/7/4 7/6/4
f 15/2/5 9/21/5 11/22/5 16/8/5
f 48/23/5 47/24/5 64/25/5 54/26/5
f 8/19/2 12/27/2 11/22/2 6/20/2
f 4/18/1 2/17/1 9/21/1 10/28/1
f 33/29/3 21/30/3 51/31/3 53/32/3
f 10/28/6 13/1/6 14/5/6 12/27/6
f 12/27/2 14/5/2 16/8/2 11/22/2
f 10/28/1 9/21/1 15/2/1 13/1/1
f 17/33/6 18/34/6 20/35/6 19/36/6
f 22/12/6 23/11/6 24/37/6 21/30/6
f 46/38/1 45/39/1 18/34/1 17/33/1
f 33/29/3 36/9/3 22/12/3 21/30/3
f 47/24/3 46/38/3 17/33/3 19/36/3
f 45/39/4 48/23/4 20/35/4 18/34/4
f 35/10/4 34/40/4 24/37/4 23/11/4
f 20/35/4 48/23/4 54/26/4 50/41/4
f 25/42/5 26/43/5 28/44/5 27/45/5
f 30/46/5 31/16/5 32/15/5 29/47/5
f 43/48/1 42/13/1 31/16/1 30/46/1
f 40/49/1 39/50/1 26/43/1 25/42/1
f 44/51/4 43/48/4 30/46/4 29/47/4
f 37/52/4 40/49/4 25/42/4 27/45/4
f 41/14/6 44/51/6 63/53/6 60/54/6
f 39/50/3 38/55/3 28/44/3 26/43/3
f 10/28/4 12/27/4 34/40/4 35/10/4
f 8/19/3 4/18/3 36/9/3 33/29/3
f 12/27/2 8/19/2 33/29/2 34/40/2
f 4/18/1 10/28/1 35/10/1 36/9/1
f 2/17/3 6/20/3 38/55/3 39/50/3
f 11/22/4 9/21/4 40/49/4 37/52/4
f 9/21/1 2/17/1 39/50/1 40/49/1
f 6/20/2 11/22/2 37/52/2 38/55/2
f 16/8/2 5/7/2 44/51/2 41/14/2
f 5/7/4 1/3/4 43/48/4 44/51/4
f 1/3/1 15/2/1 42/13/1 43/48/1
f 15/2/3 16/8/3 41/14/3 42/13/3
f 7/6/2 14/5/2 47/24/2 48/23/2
f 3/4/4 7/6/4 48/23/4 45/39/4
f 14/5/3 13/1/3 46/38/3 47/24/3
f 13/1/1 3/4/1 45/39/1 46/38/1
f 61/56/2 53/32/2 51/31/2 52/57/2
f 62/58/2 59/59/2 55/60/2 56/61/2
f 54/26/2 64/25/2 49/62/2 50/41/2
f 60/54/2 63/53/2 57/63/2 58/64/2
f 19/36/6 20/35/6 50/41/6 49/62/6
f 34/40/5 33/29/5 53/32/5 61/56/5
f 37/52/4 27/45/4 55/60/4 59/59/4
f 27/45/5 28/44/5 56/61/5 55/60/5
f 38/55/6 37/52/6 59/59/6 62/58/6
f 24/37/4 34/40/4 61/56/4 52/57/4
f 32/15/3 41/14/3 60/54/3 58/64/3
f 28/44/3 38/55/3 62/58/3 56/61/3
f 21/30/6 24/37/6 52/57/6 51/31/6
f 47/24/3 19/36/3 49/62/3 64/25/3
f 44/51/4 29/47/4 57/63/4 63/53/4
f 29/47/5 32/15/5 58/64/5 57/63/5
o piano_1_Plane.001
v 1.998307 0.773998 -7.110857
v 3.393309 0.773998 -7.110857
v 1.998307 0.773998 -8.269414
v 3.393309 0.773998 -8.269414
v 1.934410 0.717087 -7.057791
v 3.457206 0.717087 -7.057791
v 1.934410 0.717087 -8.322480
v 3.457206 0.717087 -8.322480
v 1.934410 0.773998 -8.322480
v 1.934410 0.773998 -7.057791
v 3.457206 0.773998 -7.057791
v 3.457206 0.773998 -8.322480
v 1.934410 0.773998 -8.322480
v 1.934410 0.773998 -7.057791
v 3.457206 0.773998 -7.057791
v 3.457206 0.773998 -8.322480
v 1.998307 0.744321 -8.269414
v 1.998307 0.744321 -7.110857
v 3.393309 0.744321 -7.110857
v 3.393309 0.744321 -8.269414
vt 0.958040 0.958040
vt 0.041960 0.958040
vt 0.041960 0.958040
vt 0.958040 0.958040
vt 0.000000 0.000000
vt 0.000000 1.000000
vt 1.000000 1.000000
vt 1.000000 0.000000
vt 0.000000 0.000000
vt 0.000000 1.000000
vt 0.000000 1.000000
vt 0.000000 0.000000
vt 1.000000 0.000000
vt 1.000000 0.000000
vt 1.000000 1.000000
vt 1.000000 1.000000
vt 0.041960 0.041960
vt 0.958040 0.041960
vt 0.041960 0.041960
vt 0.958040 0.041960
vn 0.0000 0.0000 1.0000
vn 0.0000 -1.0000 0.0000
vn 0.0000 1.0000 0.0000
vn 0.0000 0.0000 -1.0000
vn -1.0000 0.0000 0.0000
vn 1.0000 0.0000 0.0000
g piano_1_Plane.001_Material.002
usemtl Material.002
s off
f 68/65/7 67/66/7 81/67/7 84/68/7
f 69/69/8 71/70/8 72/71/8 70/72/8
f 78/73/7 77/74/7 73/75/7 74/76/7
f 79/77/7 78/73/7 74/76/7 75/78/7
f 80/79/7 79/77/7 75/78/7 76/80/7
f 77/74/7 80/79/7 76/80/7 73/75/7
f 82/81/9 83/82/9 84/68/9 81/67/9
f 65/83/10 66/84/10 83/82/10 82/81/10
f 66/84/11 68/65/11 84/68/11 83/82/11
f 67/66/12 65/83/12 82/81/12 81/67/12
g piano_1_Plane.001_Material.003
usemtl Material.003
f 74/76/11 73/75/11 71/70/11 69/69/11
f 75/78/7 74/76/7 69/69/7 70/72/7
f 76/80/12 75/78/12 70/72/12 72/71/12
f 73/75/10 76/80/10 72/71/10 71/70/10
f 65/83/9 67/66/9 77/74/9 78/73/9
f 66/84/9 65/83/9 78/73/9 79/77/9
f 68/65/9 66/84/9 79/77/9 80/79/9
f 67/66/9 68/65/9 80/79/9 77/74/9
o piano_2_Plane.006
v 1.998307 1.370785 -7.110857
v 3.393309 1.370785 -7.110857
v 1.998307 1.370785 -8.269414
v 3.393309 1.370785 -8.269414
v 1.934410 1.313874 -7.057791
v 3.457206 1.313874 -7.057791
v 1.934410 1.313874 -8.322480
v 3.457206 1.313874 -8.322480
v 1.934410 1.370785 -8.322480
v 1.934410 1.370785 -7.057791
v 3.457206 1.370785 -7.057791
v 3.457206 1.370785 -8.322480
v 1.934410 1.370785 -8.322480
v 1.934410 1.370785 -7.057791
v 3.457206 1.370785 -7.057791
v 3.457206 1.370785 -8.322480
v 1.998307 1.341109 -8.269414
v 1.998307 1.341109 -7.110857
v 3.393309 1.341109 -7.110857
v 3.393309 1.341109 -8.269414
vt 0.958040 0.958040
vt 0.041960 0.958040
vt 0.041960 0.958040
vt 0.958040 0.958040
vt 0.000000 0.000000
vt 0.000000 1.000000
vt 1.000000 1.000000
vt 1.000000 0.000000
vt 0.000000 0.000000
vt 0.000000 1.000000
vt 0.000000 1.000000
vt 0.000000 0.000000
vt 1.000000 0.000000
vt 1.000000 0.000000
vt 1.000000 1.000000
vt 1.000000 1.000000
vt 0.041960 0.041960
vt 0.958040 0.041960
vt 0.041960 0.041960
vt 0.958040 0.041960
vn 0.0000 0.0000 1.0000
vn 0.0000 -1.0000 0.0000
vn 0.0000 1.0000 0.0000
vn 0.0000 0.0000 -1.0000
vn -1.0000 0.0000 0.0000
vn 1.0000 0.0000 0.0000
g piano_2_Plane.006_Material.011
usemtl Material.011
s off
f 88/85/13 87/86/13 101/87/13 104/88/13
f 89/89/14 91/90/14 92/91/14 90/92/14
f 98/93/13 97/94/13 93/95/13 94/96/13
f 99/97/13 98/93/13 94/96/13 95/98/13
f 100/99/13 99/97/13 95/98/13 96/100/13
f 97/94/13 100/99/13 96/100/13 93/95/13
f 102/101/15 103/102/15 104/88/15 101/87/15
f 85/103/16 86/104/16 103/102/16 102/101/16
f 86/104/17 88/85/17 104/88/17 103/102/17
f 87/86/18 85/103/18 102/101/18 101/87/18
g piano_2_Plane.006_Material.010
usemtl Material.010
f 94/96/17 93/95/17 91/90/17 89/89/17
f 95/98/13 94/96/13 89/89/13 90/92/13
f 96/100/18 95/98/18 90/92/18 92/91/18
f 93/95/16 96/100/16 92/91/16 91/90/16
f 85/103/15 87/86/15 97/94/15 98/93/15
f 86/104/15 85/103/15 98/93/15 99/97/15
f 88/85/15 86/104/15 99/97/15 100/99/15
f 87/86/15 88/85/15 100/99/15 97/94/15
o piano3_Plane.007
v 1.998307 2.018968 -7.110857
v 3.393309 2.018968 -7.110857
v 1.998307 2.018968 -8.269414
v 3.393309 2.018968 -8.269414
v 1.934410 1.962057 -7.057791
v 3.457206 1.962057 -7.057791
v 1.934410 1.962057 -8.322480
v 3.457206 1.962057 -8.322480
v 1.934410 2.018968 -8.322480
v 1.934410 2.018968 -7.057791
v 3.457206 2.018968 -7.057791
v 3.457206 2.018968 -8.322480
v 1.934410 2.018968 -8.322480
v 1.934410 2.018968 -7.057791
v 3.457206 2.018968 -7.057791
v 3.457206 2.018968 -8.322480
v 1.998307 1.989292 -8.269414
v 1.998307 1.989292 -7.110857
v 3.393309 1.989292 -7.110857
v 3.393309 1.989292 -8.269414
vt 0.958040 0.958040
vt 0.041960 0.958040
vt 0.041960 0.958040
vt 0.958040 0.958040
vt 0.000000 0.000000
vt 0.000000 1.000000
vt 1.000000 1.000000
vt 1.000000 0.000000
vt 0.000000 0.000000
vt 0.000000 1.000000
vt 0.000000 1.000000
vt 0.000000 0.000000
vt 1.000000 0.000000
vt 1.000000 0.000000
vt 1.000000 1.000000
vt 1.000000 1.000000
vt 0.041960 0.041960
vt 0.958040 0.041960
vt 0.041960 0.041960
vt 0.958040 0.041960
vn 0.0000 0.0000 1.0000
vn 0.0000 -1.0000 0.0000
vn 0.0000 1.0000 0.0000
vn 0.0000 0.0000 -1.0000
vn -1.0000 0.0000 0.0000
vn 1.0000 0.0000 0.0000
g piano3_Plane.007_Material.012
usemtl Material.012
s off
f 108/105/19 107/106/19 121/107/19 124/108/19
f 109/109/20 111/110/20 112/111/20 110/112/20
f 118/113/19 117/114/19 113/115/19 114/116/19
f 119/117/19 118/113/19 114/116/19 115/118/19
f 120/119/19 119/117/19 115/118/19 116/120/19
f 117/114/19 120/119/19 116/120/19 113/115/19
f 122/121/21 123/122/21 124/108/21 121/107/21
f 105/123/22 106/124/22 123/122/22 122/121/22
f 106/124/23 108/105/23 124/108/23 123/122/23
f 107/106/24 105/123/24 122/121/24 121/107/24
g piano3_Plane.007_Material.013
usemtl Material.013
f 114/116/23 113/115/23 111/110/23 109/109/23
f 115/118/19 114/116/19 109/109/19 110/112/19
f 116/120/24 115/118/24 110/112/24 112/111/24
f 113/115/22 116/120/22 112/111/22 111/110/22
f 105/123/21 107/106/21 117/114/21 118/113/21
f 106/124/21 105/123/21 118/113/21 119/117/21
f 108/105/21 106/124/21 119/117/21 120/119/21
f 107/106/21 108/105/21 120/119/21 117/114/21
