# Blender v3.1.2 OBJ File: 'room.blend'
# www.blender.org
mtllib room.mtl
o room_Plane
v -5.214415 -0.000001 8.377805
v 5.036813 -0.000001 8.377805
v -5.214415 -0.000001 -8.377805
v 5.036813 -0.000001 -8.377805
v -5.474076 8.661166 -8.842472
v 5.296474 8.661166 -8.842472
v 5.296474 8.649539 8.842472
v 5.296474 8.649539 -8.842472
v -5.474076 8.653010 8.842472
v 5.296474 8.653010 8.842472
v -5.474076 2.313546 8.842472
v -5.474076 2.313546 -8.842472
v -5.214415 -0.000001 -7.427837
v 5.036813 -0.000001 -7.427837
v 5.296474 8.649539 -7.427837
v -5.474076 2.313546 -7.427837
v -5.214415 -0.000001 -2.194666
v -5.474076 2.313546 -2.194666
v 5.036813 -0.000001 -2.194666
v 5.296474 8.649539 -2.194666
v -5.474076 8.635483 8.842472
v -5.474076 8.635483 -2.194666
v -5.474076 8.675829 -8.842472
v -5.474076 8.675829 -7.427837
v -5.474076 5.432845 8.842472
v -5.474076 5.432845 -2.194666
v -5.474076 8.635483 -7.435881
v -5.474076 5.432845 -7.435881
v -5.671727 -0.246932 9.196171
v 5.494125 -0.246932 9.196171
v -5.671727 -0.246932 -9.196171
v 5.494125 -0.246932 -9.196171
v -5.474076 8.661166 -9.196171
v 5.296474 8.661166 -9.196171
v 5.494125 8.649539 8.842472
v 5.494125 8.649539 -8.842472
v -5.474076 8.653010 9.196171
v 5.296474 8.653010 9.196171
v -5.671727 2.313546 8.842472
v -5.671727 2.313546 -8.842472
v -5.671727 -0.246932 -7.427837
v 5.494125 -0.246932 -7.427837
v 5.494125 8.649539 -7.427837
v -5.671727 2.313546 -7.427837
v -5.671727 -0.246932 -2.194666
v -5.671727 2.313546 -2.194666
v 5.494125 -0.246932 -2.194666
v 5.494125 8.649539 -2.194666
v -5.671727 8.635483 8.842472
v -5.671727 8.635483 -2.194666
v -5.671727 8.675829 -8.842472
v -5.671727 8.675829 -7.427837
v -5.671727 5.432845 8.842472
v -5.671727 5.432845 -2.194666
v -5.671727 8.635483 -7.435881
v -5.671727 5.432845 -7.435881
v -5.474076 -0.000001 -2.194666
v -5.474076 -0.000001 8.842472
v 5.296474 -0.000001 8.842472
v 5.296474 -0.000001 -7.427837
v 5.296474 -0.000001 -8.842472
v -5.474076 -0.000001 -8.842472
v -5.474076 -0.000001 -7.427837
v 5.296474 -0.000001 -2.194666
v -5.474076 0.453964 -2.194666
v -5.474076 0.453964 8.842472
v 5.296474 0.453964 8.842472
v 5.296474 0.453964 -7.427837
v 5.296474 0.453964 -8.842472
v -5.474076 0.453964 -8.842472
v -5.474076 0.453964 -7.427837
v 5.296474 0.453964 -2.194666
v -5.214415 0.453964 -2.194666
v -5.214415 0.453964 8.377805
v 5.036813 0.453964 8.377805
v 5.036813 0.453964 -7.427837
v 5.036813 0.453964 -8.377805
v -5.214415 0.453964 -8.377805
v -5.214415 0.453964 -7.427837
v 5.036813 0.453964 -2.194666
vt 0.000000 0.920009
vt 0.000000 1.000000
vt 1.000000 1.000000
vt 1.000000 0.920009
vt 0.000000 0.624098
vt 1.000000 0.624098
vt 0.000000 0.000000
vt 1.000000 0.000000
vt 0.003342 0.557531
vt 0.317171 0.662526
vt 0.259811 0.726739
vt 0.000096 0.562814
vt 0.351272 0.755880
vt 0.353161 0.759296
vt 0.000000 0.000000
vt 0.000000 0.000000
vt 0.000000 0.000000
vt 0.000000 0.000000
vt 0.000000 1.000000
vt 0.000000 1.000000
vt 0.000000 1.000000
vt 0.000000 1.000000
vt 0.000000 0.000000
vt 0.000000 0.000000
vt 0.000000 0.624098
vt 0.000000 0.624098
vt 0.000000 0.624098
vt 0.000000 0.624098
vt 0.000084 0.919939
vt 0.000084 0.999916
vt 0.000084 0.999916
vt 0.000084 0.919939
vt 0.833104 0.478213
vt 0.760933 0.520194
vt 0.760933 0.520194
vt 0.833104 0.478213
vt 0.474765 0.176367
vt 0.474765 0.176367
vt 0.317171 0.662526
vt 0.626423 0.591346
vt 0.626423 0.591346
vt 0.322006 0.759815
vt 0.999913 0.759815
vt 0.999913 0.759815
vt 0.322006 0.759815
vt 0.000084 0.624077
vt 0.000084 0.624077
vt 0.000084 0.000084
vt 0.000084 0.000084
vt 0.000080 0.643644
vt 0.999920 0.643644
vt 0.999920 0.643644
vt 0.000080 0.643644
vt 0.999905 0.051870
vt 0.000096 0.051870
vt 0.000096 0.000096
vt 0.999905 0.000097
vt 0.999905 0.337084
vt 0.000096 0.337084
vt 0.999905 0.913296
vt 0.000096 0.913297
vt 0.999986 0.018363
vt 0.000014 0.018364
vt 0.000014 0.000014
vt 0.999986 0.000014
vt 0.020014 0.000014
vt 0.020014 0.080003
vt 0.000014 0.080003
vt 0.000014 0.000014
vt 0.999986 0.018363
vt 0.000014 0.018364
vt 0.000014 0.000014
vt 0.999986 0.000014
vt 0.020013 0.375904
vt 0.000014 0.375904
vt 0.020014 0.999986
vt 0.000014 0.999986
vt 0.021742 0.000015
vt 0.021742 0.678021
vt 0.000015 0.678021
vt 0.999950 0.250053
vt 0.000050 0.250053
vt 0.000050 0.000050
vt 0.999950 0.000050
vt 0.021742 0.999985
vt 0.000015 0.999985
vt 0.000046 0.000046
vt 0.999954 0.000046
vt 0.999954 0.124290
vt 0.000046 0.124290
vt 0.000089 0.999911
vt 0.000089 0.328502
vt 0.459666 0.328502
vt 0.459666 0.999911
vt 0.057867 0.024131
vt 0.057867 0.975869
vt 0.024131 0.975869
vt 0.024131 0.024131
vt 0.042129 0.042129
vt 0.042129 0.999968
vt 0.000032 0.999968
vt 0.000032 0.000032
vt 0.033760 0.975869
vt 0.033760 0.024131
vt 0.057867 0.000024
vt 0.057867 0.999976
vt 0.328502 0.459666
vt 0.999911 0.459666
vt 0.999911 0.788079
vt 0.000089 0.788079
vt 0.000024 0.999976
vt 0.000024 0.000024
vt 0.788079 0.000089
vt 0.788079 0.999911
vt 0.999954 0.213074
vt 0.000046 0.213074
vt 0.088831 0.000046
vt 0.088831 0.999954
vt 0.000046 0.999954
vt 0.000047 0.000046
vt 0.058943 0.999968
vt 0.058943 0.042129
vt 0.101040 0.000032
vt 0.101040 0.999968
vt 0.213074 0.000046
vt 0.213074 0.999954
vt 0.000033 0.999968
vt 0.000032 0.042130
vt 0.101040 0.042128
vt 0.101040 0.999968
vt 0.000024 0.975869
vt 0.000024 0.024131
vt 0.328501 0.000089
vt 0.999911 0.000089
vt 0.000080 0.000080
vt 0.999920 0.000080
vt 0.890778 0.999906
vt 0.000095 0.999906
vt 0.000094 0.000095
vt 0.890778 0.000094
vt 0.999920 0.000080
vt 0.999920 0.643038
vt 0.000080 0.643038
vt 0.410575 0.087794
vt 0.441995 0.025511
vt 0.587899 0.099113
vt 0.556479 0.161397
vt 0.294344 0.318202
vt 0.440248 0.391805
vt 0.999966 0.000034
vt 0.999966 0.114207
vt 0.000034 0.114207
vt 0.000034 0.000034
vt 0.999945 0.300270
vt 0.000055 0.300270
vt 0.000055 0.000055
vt 0.999945 0.000055
vt 0.422401 0.999935
vt 0.000065 0.999935
vt 0.000065 0.000065
vt 0.422401 0.000065
vt 0.415643 0.000064
vt 0.415643 0.999936
vt 0.000064 0.999935
vt 0.000065 0.000065
vt 0.155256 0.999961
vt 0.000040 0.000039
vt 0.155257 0.000039
vt 0.404829 0.000064
vt 0.404829 0.999936
vt 0.000064 0.999936
vt 0.000064 0.000064
vt 0.999906 0.000094
vt 0.999906 0.875183
vt 0.000094 0.875183
vt 0.000094 0.000094
vt 0.000080 0.000080
vt 0.638559 0.017778
vt 0.638559 0.982222
vt 0.000080 0.999920
vt 0.000083 0.380695
vt 0.692817 0.380695
vt 0.692817 0.980689
vt 0.000083 0.999917
vt 0.637974 0.999920
vt 0.000080 0.982221
vt 0.000080 0.017778
vt 0.637974 0.000080
vt 0.699830 0.214827
vt 0.569132 0.167671
vt 0.587320 0.117258
vt 0.722567 0.151810
vt 0.642056 0.419134
vt 0.454074 0.405007
vt 0.000083 0.000083
vt 0.692817 0.019311
vt 0.692817 0.096212
vt 0.000083 0.096212
vt 0.722567 0.952191
vt 0.548435 0.961561
vt 0.999936 0.000064
vt 0.999936 0.415643
vt 0.000064 0.415643
vt 0.000065 0.000065
vt 0.244371 0.050497
vt 0.262560 0.000085
vt 0.378980 0.999915
vt 0.246866 0.523723
vt 0.365846 0.731690
vt 0.128238 0.867627
vt 0.009259 0.659661
vt 0.761119 0.669510
vt 0.826529 0.888446
vt 0.820287 0.890310
vt 0.755559 0.667317
vt 0.480161 0.999909
vt 0.402308 0.789865
vt 0.408900 0.778322
vt 0.486149 0.997689
vt 0.093017 0.842469
vt 0.091515 0.833639
vt 0.000091 0.386788
vt 0.304457 0.312429
vt 0.316232 0.322498
vt 0.002214 0.395477
vt 0.330689 0.000091
vt 0.339603 0.000840
vt 0.760099 0.667476
vt 0.760106 0.667556
vt 0.000000 0.920009
vt 0.000000 0.920009
vt 0.000000 0.920009
vt 0.000000 0.920009
vt 0.237693 0.507688
vt 0.000085 0.643626
vn 0.0000 -1.0000 -0.0000
vn -0.9640 0.0109 -0.2656
vn 0.6464 0.0552 0.7610
vn 0.0000 0.0000 1.0000
vn 0.0000 0.0000 -1.0000
vn 1.0000 0.0000 0.0000
vn -1.0000 0.0000 0.0000
vn 0.0000 1.0000 0.0000
vn -0.9640 0.0108 0.2656
vn 0.9640 0.0108 0.2656
vn -0.6615 0.0151 -0.7498
vn -0.6615 0.0151 0.7498
vn 0.9640 0.0109 -0.2656
vn 0.6464 0.0552 -0.7610
g room_Plane_Material.005
usemtl Material.005
s off
f 41/1/1 31/2/1 32/3/1 42/4/1
f 45/5/1 41/1/1 42/4/1 47/6/1
f 29/7/1 45/5/1 47/6/1 30/8/1
f 9/9/2 58/10/2 29/11/2 37/12/2
f 58/10/3 11/13/3 39/14/3 29/11/3
f 11/15/4 25/16/4 53/17/4 39/18/4
f 23/19/5 12/20/5 40/21/5 51/22/5
f 25/16/4 21/23/4 49/24/4 53/17/4
f 27/25/5 28/26/5 56/27/5 55/28/5
f 60/29/6 61/30/6 69/31/6 68/32/6
f 62/33/7 63/34/7 71/35/7 70/36/7
f 58/10/4 59/37/4 67/38/4 66/39/4
f 63/34/7 57/40/7 65/41/7 71/35/7
f 57/42/7 58/43/7 66/44/7 65/45/7
f 64/46/6 60/29/6 68/32/6 72/47/6
f 59/48/6 64/46/6 72/47/6 67/49/6
f 61/50/5 62/51/5 70/52/5 69/53/5
g room_Plane_pavimento
usemtl pavimento
f 13/54/8 14/55/8 4/56/8 3/57/8
f 17/58/8 19/59/8 14/55/8 13/54/8
f 1/60/8 2/61/8 19/59/8 17/58/8
f 5/62/8 6/63/8 34/64/8 33/65/8
f 8/66/8 15/67/8 43/68/8 36/69/8
f 10/70/8 9/71/8 37/72/8 38/73/8
f 15/67/8 20/74/8 48/75/8 43/68/8
f 20/74/8 7/76/8 35/77/8 48/75/8
f 21/78/8 22/79/8 50/80/8 49/24/8
f 24/81/8 23/82/8 51/83/8 52/84/8
f 22/79/8 27/85/8 55/86/8 50/80/8
g room_Plane_battiscopa
usemtl battiscopa
f 14/87/7 19/88/7 80/89/7 76/90/7
f 13/91/6 3/92/6 78/93/6 79/94/6
f 3/95/4 4/96/4 77/97/4 78/98/4
f 74/99/8 73/100/8 65/101/8 66/102/8
f 75/103/8 74/104/8 66/105/8 67/106/8
f 77/107/8 76/108/8 68/109/8 69/110/8
f 78/98/8 77/97/8 69/111/8 70/112/8
f 79/94/8 78/93/8 70/113/8 71/114/8
f 76/90/8 80/89/8 72/115/8 68/116/8
f 73/117/8 79/118/8 71/119/8 65/120/8
f 80/121/8 75/122/8 67/123/8 72/124/8
f 17/125/6 13/126/6 79/118/6 73/117/6
f 19/127/7 2/128/7 75/122/7 80/121/7
f 1/129/6 17/130/6 73/100/6 74/99/6
f 2/131/5 1/132/5 74/104/5 75/103/5
f 4/133/7 14/134/7 76/108/7 77/107/7
g room_Plane_Material.016
usemtl Material.016
f 62/51/4 61/50/4 6/135/4 5/136/4
f 64/137/7 59/138/7 7/139/7 20/140/7
f 59/48/5 58/141/5 9/142/5 10/143/5
f 63/144/6 62/145/6 12/146/6 16/147/6
f 57/148/6 63/144/6 16/147/6 18/149/6
f 61/150/7 60/151/7 15/152/7 8/153/7
f 58/154/6 57/155/6 18/156/6 11/157/6
f 60/158/7 64/159/7 20/160/7 15/161/7
f 25/162/6 26/163/6 22/164/6 21/165/6
f 16/166/6 12/20/6 23/167/6 24/168/6
f 11/169/6 18/170/6 26/171/6 25/172/6
f 22/173/6 26/174/6 28/175/6 27/176/6
f 31/177/5 33/178/5 34/179/5 32/180/5
f 47/181/6 48/182/6 35/183/6 30/184/6
f 30/185/4 38/186/4 37/187/4 29/188/4
f 41/189/7 44/190/7 40/191/7 31/192/7
f 45/193/7 46/194/7 44/190/7 41/189/7
f 32/195/6 36/196/6 43/197/6 42/198/6
f 29/199/7 39/200/7 46/194/7 45/193/7
f 42/198/6 43/197/6 48/182/6 47/181/6
f 53/201/7 49/202/7 50/203/7 54/204/7
f 44/190/7 52/205/7 51/206/7 40/191/7
f 39/200/7 53/207/7 54/208/7 46/194/7
f 50/209/7 55/210/7 56/211/7 54/208/7
f 62/212/9 5/213/9 33/214/9 31/215/9
f 6/216/10 61/217/10 32/218/10 34/219/10
f 61/217/11 8/220/11 36/221/11 32/218/11
f 7/222/12 59/223/12 30/224/12 35/225/12
f 59/223/13 10/226/13 38/227/13 30/224/13
f 12/228/14 62/212/14 31/215/14 40/229/14
f 18/149/8 16/147/8 44/190/8 46/194/8
f 16/230/4 24/231/4 52/232/4 44/233/4
f 26/234/5 18/149/5 46/194/5 54/208/5
f 28/235/1 26/234/1 54/208/1 56/211/1
o tetto_Plane.003
v -5.583470 8.781884 8.930866
v 5.402102 8.781884 8.930866
v -5.583470 8.781884 -8.930866
v 5.402102 8.781884 -8.930866
v -5.583470 8.576090 8.930866
v 5.402102 8.576090 8.930866
v -5.583470 8.576090 -8.930866
v 5.402102 8.576090 -8.930866
vt 0.000000 0.000000
vt 1.000000 0.000000
vt 1.000000 1.000000
vt 0.000000 1.000000
vt 0.000000 0.000000
vt 0.000000 1.000000
vt 1.000000 1.000000
vt 1.000000 0.000000
vn 0.0000 1.0000 0.0000
vn 0.0000 -1.0000 0.0000
vn -1.0000 0.0000 0.0000
vn 0.0000 0.0000 1.0000
vn 1.0000 0.0000 0.0000
vn 0.0000 0.0000 -1.0000
g tetto_Plane.003_Material.001
usemtl Material.001
s off
f 81/236/15 82/237/15 84/238/15 83/239/15
f 85/240/16 87/241/16 88/242/16 86/243/16
f 81/236/17 83/239/17 87/241/17 85/240/17
f 82/237/18 81/236/18 85/240/18 86/243/18
f 84/238/19 82/237/19 86/243/19 88/242/19
f 83/239/20 84/238/20 88/242/20 87/241/20
o foto_Plane.001
v -5.632732 5.463758 -2.189375
v -5.654117 2.346869 -2.189375
v -5.632732 5.463758 -7.495552
v -5.654117 2.346869 -7.495552
v -5.674072 5.464042 -2.189375
v -5.695457 2.347153 -2.189375
v -5.674072 5.464042 -7.495552
v -5.695457 2.347153 -7.495552
vt 0.999906 0.000094
vt 0.999906 0.888225
vt 0.000094 0.888225
vt 0.000094 0.000094
vt 0.999906 0.000094
vt 0.999906 0.888225
vt 0.000094 0.888225
vt 0.000094 0.000094
vt 0.000000 0.000000
vt 0.000000 1.000000
vt 0.000000 1.000000
vt 0.000000 0.000000
vt 1.000000 0.000000
vt 1.000000 0.000000
vt 1.000000 1.000000
vt 1.000000 1.000000
vn 1.0000 -0.0069 0.0000
vn -1.0000 0.0069 0.0000
vn 0.0069 1.0000 0.0000
vn 0.0000 0.0000 1.0000
vn -0.0069 -1.0000 0.0000
vn 0.0000 0.0000 -1.0000
g foto_Plane.001_foto
usemtl foto
s off
f 89/244/21 90/245/21 92/246/21 91/247/21
f 93/248/22 95/249/22 96/250/22 94/251/22
f 89/252/23 91/253/23 95/254/23 93/255/23
f 90/256/24 89/252/24 93/255/24 94/257/24
f 92/258/25 90/256/25 94/257/25 96/259/25
f 91/253/26 92/258/26 96/259/26 95/254/26
o vetro_Plane.004
v -5.485737 5.463758 -2.171460
v -5.507123 2.346869 -2.171460
v -5.485737 5.463758 -7.379264
v -5.507123 2.346869 -7.379264
v -5.527078 5.464042 -2.171460
v -5.548462 2.347153 -2.171460
v -5.527078 5.464042 -7.379264
v -5.548462 2.347153 -7.379264
vt 0.000000 0.000000
vt 0.000000 1.000000
vt 1.000000 1.000000
vt 1.000000 0.000000
vt 0.000000 0.000000
vt 0.000000 1.000000
vt 1.000000 0.000000
vt 1.000000 1.000000
vt 0.999906 0.000094
vt 0.999906 0.888225
vt 0.000094 0.888225
vt 0.000094 0.000094
vn -1.0000 0.0069 0.0000
vn 0.0069 1.0000 0.0000
vn 0.0000 0.0000 1.0000
vn -0.0069 -1.0000 0.0000
vn 0.0000 0.0000 -1.0000
vn 1.0000 -0.0069 0.0000
g vetro_Plane.004_Material
usemtl Material
s off
f 101/260/27 103/261/27 104/262/27 102/263/27
f 97/264/28 99/265/28 103/261/28 101/260/28
f 98/266/29 97/264/29 101/260/29 102/263/29
f 100/267/30 98/266/30 102/263/30 104/262/30
f 99/265/31 100/267/31 104/262/31 103/261/31
g vetro_Plane.004_vetro
usemtl vetro
f 97/268/32 98/269/32 100/270/32 99/271/32
o anta_dx_Plane.005
v -5.202315 6.967054 3.800435
v -5.198029 -0.226329 3.800435
v -5.202315 6.967054 0.726622
v -5.198029 -0.226329 0.726622
v -5.202242 6.844222 0.779109
v -5.202242 6.844222 3.747948
v -5.198102 -0.103498 3.747948
v -5.198102 -0.103498 0.779109
v -5.472960 6.966893 3.800435
v -5.468673 -0.226490 3.800435
v -5.472960 6.966893 0.726622
v -5.468673 -0.226490 0.726622
v -5.472886 6.844061 0.779109
v -5.472886 6.844061 3.747948
v -5.468746 -0.103659 3.747948
v -5.468746 -0.103659 0.779109
vt 0.017076 0.017076
vt 0.982924 0.017076
vt 0.982924 0.982924
vt 0.017076 0.982924
vt 0.000000 1.000000
vt 0.000000 0.000000
vt 1.000000 0.000000
vt 1.000000 1.000000
vt 0.017076 0.017076
vt 0.017076 0.982924
vt 0.982924 0.982924
vt 0.982924 0.017076
vt 0.000000 0.000000
vt 0.000000 1.000000
vt 1.000000 0.000000
vt 1.000000 1.000000
vn 1.0000 0.0006 0.0000
vn -1.0000 -0.0006 0.0000
vn -0.0006 1.0000 0.0000
vn 0.0000 0.0000 1.0000
vn 0.0006 -1.0000 0.0000
vn 0.0000 0.0000 -1.0000
g anta_dx_Plane.005_Material.003
usemtl Material.003
s off
f 110/272/33 111/273/33 112/274/33 109/275/33
f 110/272/33 109/275/33 107/276/33 105/277/33
f 111/273/33 110/272/33 105/277/33 106/278/33
f 112/274/33 111/273/33 106/278/33 108/279/33
f 109/275/33 112/274/33 108/279/33 107/276/33
f 118/280/34 117/281/34 120/282/34 119/283/34
f 118/280/34 113/284/34 115/285/34 117/281/34
f 119/283/34 114/286/34 113/284/34 118/280/34
f 120/282/34 116/287/34 114/286/34 119/283/34
f 117/281/34 115/285/34 116/287/34 120/282/34
f 105/277/35 107/276/35 115/285/35 113/284/35
f 106/278/36 105/277/36 113/284/36 114/286/36
f 108/279/37 106/278/37 114/286/37 116/287/37
f 107/276/38 108/279/38 116/287/38 115/285/38
o Plane.002_Plane.006
v -5.202315 6.967054 3.971301
v -5.198029 -0.226330 3.971301
v -5.202315 6.967054 3.784046
v -5.198029 -0.226330 3.784046
v -5.472959 6.966893 3.971301
v -5.468673 -0.226491 3.971301
v -5.472959 6.966893 3.784046
v -5.468673 -0.226491 3.784046
vt 0.000000 0.000000
vt 1.000000 0.000000
vt 1.000000 1.000000
vt 0.000000 1.000000
vt 0.000000 0.000000
vt 0.000000 1.000000
vt 1.000000 1.000000
vt 1.000000 0.000000
vn 1.0000 0.0006 0.0000
vn -1.0000 -0.0006 0.0000
vn -0.0006 1.0000 0.0000
vn 0.0000 0.0000 1.0000
vn 0.0006 -1.0000 0.0000
vn 0.0000 0.0000 -1.0000
g Plane.002_Plane.006_Material.002
usemtl Material.002
s off
f 121/288/39 122/289/39 124/290/39 123/291/39
f 125/292/40 127/293/40 128/294/40 126/295/40
f 121/288/41 123/291/41 127/293/41 125/292/41
f 122/289/42 121/288/42 125/292/42 126/295/42
f 124/290/43 122/289/43 126/295/43 128/294/43
f 123/291/44 124/290/44 128/294/44 127/293/44
o finestra_dx_Plane.010
v -5.177772 6.160281 3.163516
v -5.176077 3.316391 3.163516
v -5.177772 6.160281 1.352679
v -5.176077 3.316391 1.352679
v -5.177670 5.989203 1.461612
v -5.177670 5.989203 3.054583
v -5.176179 3.487469 3.054583
v -5.176179 3.487469 1.461612
v -5.328130 6.160192 3.163516
v -5.326435 3.316302 3.163516
v -5.328130 6.160192 1.352679
v -5.326435 3.316302 1.352679
v -5.328028 5.989114 1.461612
v -5.328028 5.989114 3.054583
v -5.326537 3.487379 3.054583
v -5.326537 3.487379 1.461612
vt 0.060156 0.060156
vt 0.939844 0.060156
vt 0.939844 0.939844
vt 0.060156 0.939844
vt 0.060156 0.060156
vt 0.060156 0.939844
vt 0.939844 0.939844
vt 0.939844 0.060156
vt 0.000000 1.000000
vt 0.000000 0.000000
vt 1.000000 0.000000
vt 1.000000 1.000000
vt 0.000000 0.000000
vt 0.000000 1.000000
vt 1.000000 0.000000
vt 1.000000 1.000000
vn 1.0000 0.0006 0.0000
vn -1.0000 -0.0006 0.0000
vn -0.0006 1.0000 0.0000
vn 0.0000 0.0000 1.0000
vn 0.0006 -1.0000 0.0000
vn 0.0000 0.0000 -1.0000
g finestra_dx_Plane.010_Material.012
usemtl Material.012
s off
f 134/296/45 135/297/45 136/298/45 133/299/45
f 142/300/46 141/301/46 144/302/46 143/303/46
g finestra_dx_Plane.010_Material.011
usemtl Material.011
f 134/296/45 133/299/45 131/304/45 129/305/45
f 135/297/45 134/296/45 129/305/45 130/306/45
f 136/298/45 135/297/45 130/306/45 132/307/45
f 133/299/45 136/298/45 132/307/45 131/304/45
f 142/300/46 137/308/46 139/309/46 141/301/46
f 143/303/46 138/310/46 137/308/46 142/300/46
f 144/302/46 140/311/46 138/310/46 143/303/46
f 141/301/46 139/309/46 140/311/46 144/302/46
f 129/305/47 131/304/47 139/309/47 137/308/47
f 130/306/48 129/305/48 137/308/48 138/310/48
f 132/307/49 130/306/49 138/310/49 140/311/49
f 131/304/50 132/307/50 140/311/50 139/309/50
o finestra_sx_Plane.011
v -5.177772 6.160281 6.412486
v -5.176077 3.316391 6.412486
v -5.177772 6.160281 4.601650
v -5.176077 3.316391 4.601650
v -5.177670 5.989203 4.710583
v -5.177670 5.989203 6.303553
v -5.176179 3.487469 6.303553
v -5.176179 3.487469 4.710583
v -5.328130 6.160192 6.412486
v -5.326435 3.316302 6.412486
v -5.328130 6.160192 4.601650
v -5.326435 3.316302 4.601650
v -5.328028 5.989114 4.710583
v -5.328028 5.989114 6.303553
v -5.326537 3.487379 6.303553
v -5.326537 3.487379 4.710583
vt 0.060156 0.060156
vt 0.939844 0.060156
vt 0.939844 0.939844
vt 0.060156 0.939844
vt 0.060156 0.060156
vt 0.060156 0.939844
vt 0.939844 0.939844
vt 0.939844 0.060156
vt 0.000000 1.000000
vt 0.000000 0.000000
vt 1.000000 0.000000
vt 1.000000 1.000000
vt 0.000000 0.000000
vt 0.000000 1.000000
vt 1.000000 0.000000
vt 1.000000 1.000000
vn 1.0000 0.0006 0.0000
vn -1.0000 -0.0006 0.0000
vn -0.0006 1.0000 0.0000
vn 0.0000 0.0000 1.0000
vn 0.0006 -1.0000 0.0000
vn 0.0000 0.0000 -1.0000
g finestra_sx_Plane.011_Material.013
usemtl Material.013
s off
f 150/312/51 151/313/51 152/314/51 149/315/51
f 158/316/52 157/317/52 160/318/52 159/319/52
g finestra_sx_Plane.011_Material.014
usemtl Material.014
f 150/312/51 149/315/51 147/320/51 145/321/51
f 151/313/51 150/312/51 145/321/51 146/322/51
f 152/314/51 151/313/51 146/322/51 148/323/51
f 149/315/51 152/314/51 148/323/51 147/320/51
f 158/316/52 153/324/52 155/325/52 157/317/52
f 159/319/52 154/326/52 153/324/52 158/316/52
f 160/318/52 156/327/52 154/326/52 159/319/52
f 157/317/52 155/325/52 156/327/52 160/318/52
f 145/321/53 147/320/53 155/325/53 153/324/53
f 146/322/54 145/321/54 153/324/54 154/326/54
f 148/323/55 146/322/55 154/326/55 156/327/55
f 147/320/56 148/323/56 156/327/56 155/325/56
o anta_sx_Plane.012
v -5.202315 6.967054 7.049406
v -5.198029 -0.226329 7.049406
v -5.202315 6.967054 3.975593
v -5.198029 -0.226329 3.975593
v -5.202232 6.827668 4.035154
v -5.202232 6.827668 6.989845
v -5.198112 -0.086943 6.989845
v -5.198112 -0.086943 4.035154
v -5.472959 6.966893 7.049406
v -5.468673 -0.226490 7.049406
v -5.472959 6.966893 3.975593
v -5.468673 -0.226490 3.975593
v -5.472876 6.827507 4.035154
v -5.472876 6.827507 6.989845
v -5.468756 -0.087104 6.989845
v -5.468756 -0.087104 4.035154
vt 0.019377 0.019377
vt 0.980623 0.019377
vt 0.980623 0.980623
vt 0.019377 0.980623
vt 0.000000 1.000000
vt 0.000000 0.000000
vt 1.000000 0.000000
vt 1.000000 1.000000
vt 0.019377 0.019377
vt 0.019377 0.980623
vt 0.980623 0.980623
vt 0.980623 0.019377
vt 0.000000 0.000000
vt 0.000000 1.000000
vt 1.000000 0.000000
vt 1.000000 1.000000
vn 1.0000 0.0006 0.0000
vn -1.0000 -0.0006 0.0000
vn -0.0006 1.0000 0.0000
vn 0.0000 0.0000 1.0000
vn 0.0006 -1.0000 0.0000
vn 0.0000 0.0000 -1.0000
g anta_sx_Plane.012_Material.015
usemtl Material.015
s off
f 166/328/57 167/329/57 168/330/57 165/331/57
f 166/328/57 165/331/57 163/332/57 161/333/57
f 167/329/57 166/328/57 161/333/57 162/334/57
f 168/330/57 167/329/57 162/334/57 164/335/57
f 165/331/57 168/330/57 164/335/57 163/332/57
f 174/336/58 173/337/58 176/338/58 175/339/58
f 174/336/58 169/340/58 171/341/58 173/337/58
f 175/339/58 170/342/58 169/340/58 174/336/58
f 176/338/58 172/343/58 170/342/58 175/339/58
f 173/337/58 171/341/58 172/343/58 176/338/58
f 161/333/59 163/332/59 171/341/59 169/340/59
f 162/334/60 161/333/60 169/340/60 170/342/60
f 164/335/61 162/334/61 170/342/61 172/343/61
f 163/332/62 164/335/62 172/343/62 171/341/62
