# Blender v3.1.2 OBJ File: 'cestino.blend'
# www.blender.org
mtllib cestino.mtl
o Cube_Cube.001
v 3.396223 -0.045065 7.412376
v 3.151505 1.070582 7.414118
v 4.135581 -0.045065 7.407116
v 4.380300 1.070582 7.405375
v 3.402636 -0.045065 8.313663
v 3.157917 1.070582 8.315405
v 4.141994 -0.045065 8.308403
v 4.386712 1.070582 8.306662
v 3.417426 0.000995 7.439120
v 3.185157 1.088557 7.441803
v 4.114760 0.000995 7.434158
v 4.347044 1.088557 7.433537
v 3.423456 0.000995 8.286621
v 3.191172 1.088557 8.287243
v 4.120790 0.000995 8.281660
v 4.353060 1.088557 8.278975
vt 0.375000 0.000000
vt 0.625000 0.000000
vt 0.625000 0.250000
vt 0.375000 0.250000
vt 0.625000 0.500000
vt 0.375000 0.500000
vt 0.625000 0.750000
vt 0.375000 0.750000
vt 0.625000 1.000000
vt 0.375000 1.000000
vt 0.125000 0.500000
vt 0.125000 0.750000
vt 0.375000 0.000000
vt 0.375000 0.250000
vt 0.625000 0.250000
vt 0.625000 0.000000
vt 0.375000 0.500000
vt 0.625000 0.500000
vt 0.375000 0.750000
vt 0.625000 0.750000
vt 0.375000 1.000000
vt 0.625000 1.000000
vt 0.125000 0.500000
vt 0.125000 0.750000
vn -0.0071 0.0000 -1.0000
vn 0.9768 -0.2143 -0.0069
vn 0.0071 0.0000 1.0000
vn -0.9768 -0.2143 0.0069
vn 0.0000 -1.0000 0.0000
vn 0.0071 -0.0009 1.0000
vn -0.9779 0.2089 0.0070
vn -0.0071 -0.0009 -1.0000
vn 0.9779 0.2089 -0.0070
vn 0.0000 1.0000 0.0000
vn -0.0039 0.8408 -0.5413
vn 0.4733 0.8809 -0.0034
vn 0.0039 0.8409 0.5413
vn -0.4733 0.8809 0.0034
g Cube_Cube.001_Material.001
usemtl Material.001
s off
f 1/1/1 2/2/1 4/3/1 3/4/1
f 3/4/2 4/3/2 8/5/2 7/6/2
f 7/6/3 8/5/3 6/7/3 5/8/3
f 5/8/4 6/7/4 2/9/4 1/10/4
f 3/11/5 7/6/5 5/8/5 1/12/5
f 9/13/6 11/14/6 12/15/6 10/16/6
f 11/14/7 15/17/7 16/18/7 12/15/7
f 15/17/8 13/19/8 14/20/8 16/18/8
f 13/19/9 9/21/9 10/22/9 14/20/9
f 11/23/10 9/24/10 13/19/10 15/17/10
f 4/3/11 2/2/11 10/16/11 12/15/11
f 8/5/12 4/3/12 12/15/12 16/18/12
f 6/7/13 8/5/13 16/18/13 14/20/13
f 2/9/14 6/7/14 14/20/14 10/22/14
