# Blender 3.6.0
# www.blender.org
mtllib chessclock.mtl
o Cerchio.005
v -0.647941 2.469053 0.040536
v -0.648253 2.459379 0.022440
v -0.648526 2.446361 0.006580
v -0.648750 2.430498 -0.006437
v -0.648917 2.412400 -0.016109
v -0.649020 2.392762 -0.022065
v -0.649054 2.372339 -0.024076
v -0.649020 2.351917 -0.022065
v -0.648917 2.332280 -0.016109
v -0.648750 2.314182 -0.006437
v -0.648526 2.298318 0.006580
v -0.648253 2.285300 0.022440
v -0.647941 2.275626 0.040536
v -0.647602 2.269669 0.060170
v -0.647250 2.267658 0.080590
v -0.646899 2.269669 0.101009
v -0.646560 2.275626 0.120644
v -0.646248 2.285300 0.138739
v -0.645975 2.298318 0.154600
v -0.645751 2.314181 0.167617
v -0.645584 2.332279 0.177289
v -0.645481 2.351917 0.183245
v -0.645447 2.372339 0.185256
v -0.645481 2.392762 0.183245
v -0.645584 2.412400 0.177289
v -0.645751 2.430498 0.167617
v -0.645975 2.446361 0.154600
v -0.646248 2.459379 0.138739
v -0.646560 2.469053 0.120644
v -0.647602 2.475015 0.060194
v -0.646899 2.475015 0.100986
v -0.647250 2.477021 0.080590
v -0.647483 2.476012 0.067042
v -0.647017 2.476012 0.094137
vn 0.9999 -0.0000 -0.0172
vt 0.036652 0.706086
vt 0.007709 0.611964
vt -0.002315 0.514003
vt 0.006965 0.415970
vt 0.035191 0.321630
vt 0.081280 0.234610
vt 0.143461 0.158254
vt 0.219342 0.095495
vt 0.306010 0.048747
vt 0.400132 0.019804
vt 0.498092 0.009780
vt 0.596126 0.019060
vt 0.690465 0.047287
vt 0.777485 0.093376
vt 0.853842 0.155556
vt 0.916600 0.231438
vt 0.963349 0.318105
vt 0.992291 0.412227
vt 1.002315 0.510187
vt 0.993035 0.608221
vt 0.964809 0.702560
vt 0.918720 0.789580
vt 0.856539 0.865936
vt 0.780657 0.928695
vt 0.693989 0.975444
vt 0.599754 1.004410
vt 0.566906 1.009319
vt 0.501908 1.014410
vt 0.436871 1.009813
vt 0.403988 1.005154
vt 0.309535 0.976904
vt 0.222516 0.930815
vt 0.146159 0.868635
vt 0.083401 0.792753
s 0
usemtl Material.002
f 25/1/1 24/2/1 23/3/1 22/4/1 21/5/1 20/6/1 19/7/1 18/8/1 17/9/1 16/10/1 15/11/1 14/12/1 13/13/1 12/14/1 11/15/1 10/16/1 9/17/1 8/18/1 7/19/1 6/20/1 5/21/1 4/22/1 3/23/1 2/24/1 1/25/1 30/26/1 33/27/1 32/28/1 34/29/1 31/30/1 29/31/1 28/32/1 27/33/1 26/34/1
o Cerchio.001
v -0.647941 2.469053 -0.203659
v -0.648253 2.459379 -0.221754
v -0.648526 2.446361 -0.237615
v -0.648750 2.430498 -0.250632
v -0.648917 2.412400 -0.260304
v -0.649020 2.392762 -0.266260
v -0.649054 2.372339 -0.268271
v -0.649020 2.351917 -0.266260
v -0.648917 2.332280 -0.260304
v -0.648750 2.314182 -0.250632
v -0.648526 2.298318 -0.237615
v -0.648253 2.285300 -0.221754
v -0.647941 2.275626 -0.203659
v -0.647602 2.269669 -0.184024
v -0.647250 2.267658 -0.163605
v -0.646899 2.269669 -0.143186
v -0.646560 2.275626 -0.123551
v -0.646248 2.285300 -0.105456
v -0.645975 2.298318 -0.089595
v -0.645751 2.314181 -0.076578
v -0.645584 2.332279 -0.066906
v -0.645481 2.351917 -0.060950
v -0.645447 2.372339 -0.058939
v -0.645481 2.392762 -0.060950
v -0.645584 2.412400 -0.066906
v -0.645751 2.430498 -0.076578
v -0.645975 2.446361 -0.089595
v -0.646248 2.459379 -0.105456
v -0.646560 2.469053 -0.123551
v -0.647602 2.475015 -0.184001
v -0.646899 2.475015 -0.143209
v -0.647250 2.477021 -0.163605
v -0.647483 2.476012 -0.177153
v -0.647017 2.476012 -0.150057
vn 0.9999 -0.0000 -0.0172
vt 0.036652 0.706086
vt 0.007709 0.611964
vt -0.002315 0.514003
vt 0.006965 0.415970
vt 0.035191 0.321630
vt 0.081280 0.234610
vt 0.143461 0.158254
vt 0.219342 0.095495
vt 0.306010 0.048747
vt 0.400132 0.019804
vt 0.498092 0.009780
vt 0.596126 0.019060
vt 0.690465 0.047287
vt 0.777485 0.093376
vt 0.853842 0.155556
vt 0.916600 0.231438
vt 0.963349 0.318105
vt 0.992291 0.412227
vt 1.002315 0.510187
vt 0.993035 0.608221
vt 0.964809 0.702560
vt 0.918720 0.789580
vt 0.856539 0.865936
vt 0.780657 0.928695
vt 0.693989 0.975444
vt 0.599754 1.004410
vt 0.566906 1.009319
vt 0.501908 1.014410
vt 0.436871 1.009813
vt 0.403988 1.005154
vt 0.309535 0.976904
vt 0.222516 0.930815
vt 0.146159 0.868635
vt 0.083401 0.792753
s 0
usemtl Material.002
f 59/35/2 58/36/2 57/37/2 56/38/2 55/39/2 54/40/2 53/41/2 52/42/2 51/43/2 50/44/2 49/45/2 48/46/2 47/47/2 46/48/2 45/49/2 44/50/2 43/51/2 42/52/2 41/53/2 40/54/2 39/55/2 38/56/2 37/57/2 36/58/2 35/59/2 64/60/2 67/61/2 66/62/2 68/63/2 65/64/2 63/65/2 62/66/2 61/67/2 60/68/2
o Cube.001
v -0.817504 2.239578 0.252884
v -0.817504 2.502490 0.252884
v -0.827717 2.239578 -0.339768
v -0.827717 2.502490 -0.339768
v -0.818963 2.502490 0.124423
v -0.820422 2.502490 0.039759
v -0.821881 2.502490 -0.001109
v -0.823340 2.502490 -0.085774
v -0.824799 2.502490 -0.122014
v -0.826258 2.502490 -0.206679
v -0.797208 2.502490 -0.340294
v -0.766699 2.502490 -0.340819
v -0.736190 2.502490 -0.341345
v -0.705682 2.502490 -0.341871
v -0.675173 2.502490 -0.342397
v -0.644664 2.502490 -0.342922
v -0.634451 2.502490 0.249730
v -0.664960 2.502490 0.250256
v -0.695469 2.502490 0.250781
v -0.725977 2.502490 0.251307
v -0.756486 2.502490 0.251833
v -0.786995 2.502490 0.252359
v -0.643205 2.502490 -0.209833
v -0.641746 2.502490 -0.125168
v -0.637369 2.502490 0.036604
v -0.635910 2.502490 0.121269
v -0.673714 2.502490 -0.209307
v -0.672255 2.502490 -0.124643
v -0.667878 2.502490 0.037130
v -0.666419 2.502490 0.121795
v -0.704223 2.502490 -0.208782
v -0.702764 2.502490 -0.124117
v -0.698387 2.502490 0.037656
v -0.696928 2.502490 0.122320
v -0.734731 2.502490 -0.208256
v -0.733272 2.502490 -0.123591
v -0.728895 2.502490 0.038182
v -0.727436 2.502490 0.122846
v -0.765240 2.502490 -0.207730
v -0.763781 2.502490 -0.123065
v -0.759404 2.502490 0.038707
v -0.757945 2.502490 0.123372
v -0.795749 2.502490 -0.207204
v -0.794290 2.502490 -0.122540
v -0.789913 2.502490 0.039233
v -0.788454 2.502490 0.123898
v -0.614155 2.502490 -0.343448
v -0.614155 2.239578 -0.343448
v -0.603942 2.239578 0.249204
v -0.605401 2.502490 0.120743
v -0.603942 2.502490 0.249204
v -0.612696 2.502490 -0.210359
v -0.611237 2.502490 -0.125694
v -0.609778 2.502490 -0.089454
v -0.608319 2.502490 -0.004790
v -0.606860 2.502490 0.036079
v -0.655861 2.485674 -0.304813
v -0.655861 2.256393 -0.304813
v -0.646955 2.256393 0.212029
v -0.647760 2.485674 0.165270
v -0.646955 2.485674 0.212029
v -0.655055 2.485674 -0.258054
v -0.653596 2.485674 -0.173389
v -0.652137 2.485674 -0.088724
v -0.650678 2.485674 -0.004060
v -0.649219 2.485674 0.080605
v -0.826258 2.502490 -0.255103
v -0.827717 2.502490 -0.339768
v -0.644664 2.502490 -0.342922
v -0.614155 2.502490 -0.343448
v -0.605401 2.502490 0.164540
v -0.603942 2.502490 0.249204
v -0.786995 2.502490 0.252359
v -0.817504 2.502490 0.252884
v -0.818963 2.502490 0.168220
v -0.797208 2.502490 -0.340294
v -0.766699 2.502490 -0.340819
v -0.736190 2.502490 -0.341345
v -0.705682 2.502490 -0.341871
v -0.675173 2.502490 -0.342397
v -0.612696 2.502490 -0.258783
v -0.634451 2.502490 0.249730
v -0.664960 2.502490 0.250256
v -0.695469 2.502490 0.250781
v -0.725977 2.502490 0.251307
v -0.756486 2.502490 0.251833
vn -0.9999 -0.0001 0.0172
vn -0.0172 -0.0000 -0.9999
vn 0.0172 -0.0000 0.9999
vn -0.0000 -1.0000 -0.0000
vn -0.0000 1.0000 -0.0000
vn 0.9999 -0.0000 -0.0172
vt 0.375000 0.000000
vt 0.625000 0.000000
vt 0.625000 0.035714
vt 0.625000 0.071429
vt 0.625000 0.107143
vt 0.625000 0.142857
vt 0.625000 0.178571
vt 0.625000 0.214286
vt 0.625000 0.250000
vt 0.375000 0.250000
vt 0.625000 0.285714
vt 0.625000 0.321429
vt 0.625000 0.357143
vt 0.625000 0.392857
vt 0.625000 0.428571
vt 0.625000 0.464286
vt 0.625000 0.500000
vt 0.375000 0.500000
vt 0.375000 0.750000
vt 0.625000 0.750000
vt 0.625000 0.785714
vt 0.625000 0.821429
vt 0.625000 0.857143
vt 0.625000 0.892857
vt 0.625000 0.928571
vt 0.625000 0.964286
vt 0.625000 1.000000
vt 0.375000 1.000000
vt 0.125000 0.500000
vt 0.125000 0.750000
vt 0.660714 0.678571
vt 0.625000 0.678571
vt 0.625000 0.642857
vt 0.625000 0.607143
vt 0.625000 0.571429
vt 0.660714 0.571429
vt 0.696429 0.571429
vt 0.732143 0.571429
vt 0.767857 0.571429
vt 0.803571 0.571429
vt 0.839286 0.571429
vt 0.875000 0.571429
vt 0.875000 0.607143
vt 0.875000 0.642857
vt 0.875000 0.678571
vt 0.839286 0.678571
vt 0.803571 0.678571
vt 0.767857 0.678571
vt 0.732143 0.678571
vt 0.696429 0.678571
vt 0.875000 0.714286
vt 0.839286 0.714286
vt 0.803571 0.714286
vt 0.696429 0.535714
vt 0.732143 0.535714
vt 0.625000 0.535714
vt 0.660714 0.535714
vt 0.732143 0.714286
vt 0.696429 0.714286
vt 0.660714 0.714286
vt 0.625000 0.714286
vt 0.839286 0.535714
vt 0.875000 0.535714
vt 0.803571 0.535714
vt 0.390990 0.515990
vt 0.609010 0.515990
vt 0.609010 0.535714
vt 0.609010 0.571429
vt 0.609010 0.607143
vt 0.609010 0.642857
vt 0.609010 0.678571
vt 0.609010 0.714286
vt 0.609010 0.734010
vt 0.390990 0.734010
vt 0.767857 0.535714
vt 0.660714 0.500000
vt 0.696429 0.500000
vt 0.732143 0.500000
vt 0.767857 0.500000
vt 0.803571 0.500000
vt 0.839286 0.500000
vt 0.875000 0.500000
vt 0.875000 0.750000
vt 0.839286 0.750000
vt 0.803571 0.750000
vt 0.767857 0.750000
vt 0.732143 0.750000
vt 0.696429 0.750000
vt 0.660714 0.750000
vt 0.767857 0.714286
s 0
usemtl orologio.001
f 69/69/3 70/70/3 73/71/3 74/72/3 75/73/3 76/74/3 77/75/3 78/76/3 72/77/3 71/78/3
f 71/78/4 72/77/4 79/79/4 80/80/4 81/81/4 82/82/4 83/83/4 84/84/4 115/85/4 116/86/4
f 117/87/5 119/88/5 85/89/5 86/90/5 87/91/5 88/92/5 89/93/5 90/94/5 70/95/5 69/96/5
f 71/97/6 116/86/6 117/87/6 69/98/6
f 73/71/6 70/70/6 142/70/6 143/71/6
f 93/99/7 124/100/7 123/101/7 122/102/7 121/103/7 92/104/7 96/105/7 100/106/7 104/107/7 108/108/7 112/109/7 77/110/7 76/111/7 75/112/7 74/113/7 113/114/7 109/115/7 105/116/7 101/117/7 97/118/7
f 113/114/7 74/113/7 73/119/7 114/120/7 110/121/7 109/115/7
f 95/122/7 99/123/7 100/106/7 96/105/7 92/104/7 121/103/7 120/124/7 91/125/7
f 97/118/7 101/117/7 102/126/7 98/127/7 94/128/7 118/129/7 124/100/7 93/99/7
f 111/130/7 78/131/7 77/110/7 112/109/7 108/108/7 107/132/7
f 126/133/8 125/134/8 130/135/8 131/136/8 132/137/8 133/138/8 134/139/8 128/140/8 129/141/8 127/142/8
f 111/130/7 107/132/7 103/143/7 99/123/7 95/122/7 91/125/7 120/124/7 149/124/7 138/85/7 137/144/7 148/145/7 147/146/7 146/147/7 145/148/7 144/149/7 136/150/7 135/131/7 78/131/7
f 72/77/7 78/76/7 135/76/7 136/77/7
f 85/89/7 119/88/7 140/88/7 150/89/7
f 110/121/7 114/120/7 73/119/7 143/119/7 142/151/7 141/152/7 154/153/7 153/154/7 152/155/7 151/156/7 150/157/7 140/88/7 139/129/7 118/129/7 94/128/7 98/127/7 102/126/7 106/158/7
f 86/90/7 85/89/7 150/89/7 151/90/7
f 79/79/7 72/77/7 136/77/7 144/79/7
f 115/85/7 84/84/7 137/84/7 138/85/7
f 87/91/7 86/90/7 151/90/7 152/91/7
f 80/80/7 79/79/7 144/79/7 145/80/7
f 88/92/7 87/91/7 152/91/7 153/92/7
f 81/81/7 80/80/7 145/80/7 146/81/7
f 89/93/7 88/92/7 153/92/7 154/93/7
f 82/82/7 81/81/7 146/81/7 147/82/7
f 119/88/7 118/129/7 139/129/7 140/88/7
f 90/94/7 89/93/7 154/93/7 141/94/7
f 83/83/7 82/82/7 147/82/7 148/83/7
f 84/84/7 83/83/7 148/83/7 137/84/7
f 120/124/6 115/85/6 138/85/6 149/124/6
f 70/95/7 90/94/7 141/94/7 142/95/7
o Cube.002
v -0.604595 2.256393 0.211299
v -0.604595 2.485674 0.211299
v -0.613502 2.256393 -0.305543
v -0.613502 2.485674 -0.305543
v -0.612696 2.485674 -0.258783
v -0.611237 2.485674 -0.174119
v -0.609778 2.485674 -0.089454
v -0.608319 2.485674 -0.004790
v -0.606860 2.485674 0.079875
v -0.605401 2.485674 0.164540
v -0.704223 2.502490 -0.208782
v -0.702764 2.502490 -0.124117
v -0.698387 2.502490 0.037656
v -0.696928 2.502490 0.122320
v -0.734731 2.502490 -0.208256
v -0.733272 2.502490 -0.123591
v -0.728895 2.502490 0.038182
v -0.727436 2.502490 0.122846
v -0.765240 2.502490 -0.207730
v -0.763781 2.502490 -0.123065
v -0.759404 2.502490 0.038707
v -0.757945 2.502490 0.123372
v -0.698387 2.542490 0.037656
v -0.696928 2.542490 0.122320
v -0.728895 2.542490 0.038182
v -0.727436 2.542490 0.122846
v -0.759404 2.542490 0.038707
v -0.757945 2.542490 0.123372
v -0.704223 2.522490 -0.208782
v -0.702764 2.522490 -0.124117
v -0.734731 2.522490 -0.208256
v -0.733272 2.522490 -0.123591
v -0.765240 2.522490 -0.207730
v -0.763781 2.522490 -0.123065
v -0.614155 2.502490 -0.343448
v -0.614155 2.239578 -0.343448
v -0.603942 2.239578 0.249204
v -0.605401 2.502490 0.120743
v -0.603942 2.502490 0.249204
v -0.612696 2.502490 -0.210359
v -0.611237 2.502490 -0.125694
v -0.609778 2.502490 -0.089454
v -0.608319 2.502490 -0.004790
v -0.606860 2.502490 0.036079
v -0.655861 2.485674 -0.304813
v -0.655861 2.256393 -0.304813
v -0.646955 2.256393 0.212029
v -0.647760 2.485674 0.165270
v -0.646955 2.485674 0.212029
v -0.655055 2.485674 -0.258054
v -0.653596 2.485674 -0.173389
v -0.652137 2.485674 -0.088724
v -0.650678 2.485674 -0.004060
v -0.649219 2.485674 0.080605
vn -0.0000 -1.0000 -0.0000
vn 0.9999 -0.0000 -0.0172
vn -0.0172 -0.0000 -0.9999
vn 0.0172 -0.0000 0.9999
vn -0.9999 -0.0000 0.0172
vn 0.9999 0.0014 -0.0172
vn -0.0000 1.0000 -0.0000
vt 0.609010 0.714286
vt 0.609010 0.734010
vt 0.732143 0.571429
vt 0.732143 0.535714
vt 0.732143 0.714286
vt 0.732143 0.678571
vt 0.767857 0.535714
vt 0.803571 0.535714
vt 0.767857 0.678571
vt 0.803571 0.678571
vt 0.803571 0.714286
vt 0.767857 0.714286
vt 0.803571 0.571429
vt 0.767857 0.571429
vt 0.609010 0.515990
vt 0.390990 0.515990
vt 0.375000 0.500000
vt 0.625000 0.500000
vt 0.390990 0.734010
vt 0.375000 0.750000
vt 0.625000 0.750000
vt 0.609010 0.642857
vt 0.609010 0.607143
vt 0.609010 0.571429
vt 0.609010 0.535714
vt 0.625000 0.535714
vt 0.625000 0.571429
vt 0.625000 0.607143
vt 0.625000 0.642857
vt 0.625000 0.678571
vt 0.625000 0.714286
vt 0.609010 0.678571
s 0
usemtl White_Piece
f 164/159/9 156/160/9 203/160/9 202/159/9
f 166/161/10 165/162/10 183/162/10 184/161/10
f 168/163/10 167/164/10 177/164/10 178/163/10
f 169/165/11 173/166/11 187/166/11 185/165/11
f 171/167/11 175/168/11 181/168/11 179/167/11
f 167/164/11 171/167/11 179/167/11 177/164/11
f 176/169/12 172/170/12 180/170/12 182/169/12
f 175/168/13 176/169/13 182/169/13 181/168/13
f 172/170/12 168/163/12 178/163/12 180/170/12
f 165/162/11 169/165/11 185/165/11 183/162/11
f 174/171/12 170/172/12 186/172/12 188/171/12
f 173/166/13 174/171/13 188/171/13 187/166/13
f 170/172/12 166/161/12 184/161/12 186/172/12
f 158/173/10 157/174/10 190/175/10 189/176/10
f 157/174/10 155/177/10 191/178/10 190/175/10
f 155/177/10 156/160/10 193/179/10 191/178/10
f 162/180/14 161/181/14 160/182/14 159/183/14 158/173/14 189/176/14 194/184/14 195/185/14 196/186/14 197/187/14 198/188/14 192/189/14 193/179/14 156/160/14 164/159/14 163/190/14
f 163/190/9 164/159/9 202/159/9 208/190/9
f 160/182/9 161/181/9 206/181/9 205/182/9
f 157/174/12 158/173/12 199/173/12 200/174/12
f 161/181/9 162/180/9 207/180/9 206/181/9
f 158/173/9 159/183/9 204/183/9 199/173/9
f 155/177/15 157/174/15 200/174/15 201/177/15
f 162/180/9 163/190/9 208/190/9 207/180/9
f 159/183/9 160/182/9 205/182/9 204/183/9
o Cube.003
v -0.698387 2.542490 0.037656
v -0.696928 2.542490 0.122320
v -0.728895 2.542490 0.038182
v -0.727436 2.542490 0.122846
v -0.759404 2.542490 0.038707
v -0.757945 2.542490 0.123372
v -0.704223 2.522490 -0.208782
v -0.702764 2.522490 -0.124117
v -0.734731 2.522490 -0.208256
v -0.733272 2.522490 -0.123591
v -0.765240 2.522490 -0.207730
v -0.763781 2.522490 -0.123065
vn -0.0000 1.0000 -0.0000
vt 0.767857 0.678571
vt 0.803571 0.678571
vt 0.803571 0.714286
vt 0.767857 0.714286
vt 0.732143 0.714286
vt 0.732143 0.678571
vt 0.767857 0.535714
vt 0.803571 0.535714
vt 0.803571 0.571429
vt 0.767857 0.571429
vt 0.732143 0.571429
vt 0.732143 0.535714
s 0
usemtl Material
f 211/191/16 213/192/16 214/193/16 212/194/16 210/195/16 209/196/16
f 217/197/16 219/198/16 220/199/16 218/200/16 216/201/16 215/202/16
o Cube.004
v -0.604595 2.256393 0.211299
v -0.604595 2.485674 0.211299
v -0.646955 2.256393 0.212029
v -0.646955 2.485674 0.212029
vn -0.0172 -0.0000 -0.9999
vt 0.609010 0.734010
vt 0.390990 0.734010
s 0
usemtl White_Piece
f 222/203/17 221/204/17 223/204/17 224/203/17
o Circle
v -0.645734 2.370898 0.090655
v -0.645734 2.363002 0.086097
v -0.645734 2.363002 0.076980
v -0.645734 2.370898 0.072422
v -0.645734 2.378793 0.076980
v -0.645734 2.378793 0.086097
v -0.643561 2.363002 0.086097
v -0.643561 2.370898 0.090655
v -0.643561 2.363002 0.076980
v -0.643561 2.370898 0.072422
v -0.643561 2.378793 0.076980
v -0.643561 2.378793 0.086097
vn 1.0000 -0.0000 -0.0000
vn -1.0000 -0.0000 -0.0000
vn -0.0000 -0.5000 -0.8660
vn -0.0000 -0.5000 0.8660
vn -0.0000 1.0000 -0.0000
vn -0.0000 -1.0000 -0.0000
vn -0.0000 0.5000 0.8660
vn -0.0000 0.5000 -0.8660
vt 0.000000 0.000000
s 0
usemtl Material.001
f 226/205/18 227/205/18 228/205/18 229/205/18 230/205/18 225/205/18
f 231/205/19 232/205/19 236/205/19 235/205/19 234/205/19 233/205/19
f 230/205/20 236/205/20 232/205/20 225/205/20
f 228/205/21 234/205/21 235/205/21 229/205/21
f 226/205/22 231/205/22 233/205/22 227/205/22
f 229/205/23 235/205/23 236/205/23 230/205/23
f 227/205/24 233/205/24 234/205/24 228/205/24
f 225/205/25 232/205/25 231/205/25 226/205/25
o Circle.001
v -0.645734 2.370898 -0.153539
v -0.645734 2.363002 -0.158098
v -0.645734 2.363002 -0.167215
v -0.645734 2.370898 -0.171773
v -0.645734 2.378793 -0.167215
v -0.645734 2.378793 -0.158098
v -0.643561 2.363002 -0.158098
v -0.643561 2.370898 -0.153539
v -0.643561 2.363002 -0.167215
v -0.643561 2.370898 -0.171773
v -0.643561 2.378793 -0.167215
v -0.643561 2.378793 -0.158098
vn 1.0000 -0.0000 -0.0000
vn -1.0000 -0.0000 -0.0000
vn -0.0000 -0.5000 -0.8660
vn -0.0000 -0.5000 0.8660
vn -0.0000 1.0000 -0.0000
vn -0.0000 -1.0000 -0.0000
vn -0.0000 0.5000 0.8660
vn -0.0000 0.5000 -0.8660
vt 0.000000 0.000000
s 0
usemtl Material.001
f 238/206/26 239/206/26 240/206/26 241/206/26 242/206/26 237/206/26
f 243/206/27 244/206/27 248/206/27 247/206/27 246/206/27 245/206/27
f 242/206/28 248/206/28 244/206/28 237/206/28
f 240/206/29 246/206/29 247/206/29 241/206/29
f 238/206/30 243/206/30 245/206/30 239/206/30
f 241/206/31 247/206/31 248/206/31 242/206/31
f 239/206/32 245/206/32 246/206/32 240/206/32
f 237/206/33 244/206/33 243/206/33 238/206/33
o Plane
v -0.645734 2.370900 0.019685
v -0.645734 2.365953 0.081510
v -0.645734 2.375847 0.081510
v -0.644735 2.365953 0.081510
v -0.644735 2.370900 0.019685
v -0.644735 2.375847 0.081510
vn 1.0000 -0.0000 -0.0000
vn -1.0000 -0.0000 -0.0000
vn -0.0000 -0.9968 0.0798
vn -0.0000 -0.0000 -1.0000
vn -0.0000 0.9968 0.0798
vt 1.000000 0.000000
vt 0.000000 1.000000
vt 1.000000 1.000000
s 0
usemtl Material.001
f 249/207/34 251/209/34 250/208/34
f 253/207/35 252/208/35 254/209/35
f 249/207/36 253/207/36 254/209/36 251/209/36
f 251/209/37 254/209/37 252/208/37 250/208/37
f 250/208/38 252/208/38 253/207/38 249/207/38
o Plane.001
v -0.645734 2.285836 0.081536
v -0.645734 2.370937 0.086484
v -0.645734 2.370937 0.076589
v -0.644735 2.370937 0.086484
v -0.644735 2.285836 0.081536
v -0.644735 2.370937 0.076589
vn 1.0000 -0.0000 -0.0000
vn -1.0000 -0.0000 -0.0000
vn -0.0000 0.0580 0.9983
vn -0.0000 -1.0000 -0.0000
vn -0.0000 0.0580 -0.9983
vt 1.000000 0.000000
vt 0.000000 1.000000
vt 1.000000 1.000000
s 0
usemtl Material.001
f 255/210/39 257/212/39 256/211/39
f 259/210/40 258/211/40 260/212/40
f 255/210/41 259/210/41 260/212/41 257/212/41
f 257/212/42 260/212/42 258/211/42 256/211/42
f 256/211/43 258/211/43 259/210/43 255/210/43
o Plane.002
v -0.645734 2.370900 -0.224510
v -0.645734 2.365953 -0.162685
v -0.645734 2.375847 -0.162685
v -0.644735 2.365953 -0.162685
v -0.644735 2.370900 -0.224510
v -0.644735 2.375847 -0.162685
vn 1.0000 -0.0000 -0.0000
vn -1.0000 -0.0000 -0.0000
vn -0.0000 -0.9968 0.0798
vn -0.0000 -0.0000 -1.0000
vn -0.0000 0.9968 0.0798
vt 1.000000 0.000000
vt 0.000000 1.000000
vt 1.000000 1.000000
s 0
usemtl Material.001
f 261/213/44 263/215/44 262/214/44
f 265/213/45 264/214/45 266/215/45
f 261/213/46 265/213/46 266/215/46 263/215/46
f 263/215/47 266/215/47 264/214/47 262/214/47
f 262/214/48 264/214/48 265/213/48 261/213/48
o Plane.003
v -0.645734 2.285836 -0.162658
v -0.645734 2.370937 -0.157711
v -0.645734 2.370937 -0.167606
v -0.644735 2.370937 -0.157711
v -0.644735 2.285836 -0.162658
v -0.644735 2.370937 -0.167606
vn 1.0000 -0.0000 -0.0000
vn -1.0000 -0.0000 -0.0000
vn -0.0000 0.0580 0.9983
vn -0.0000 -1.0000 -0.0000
vn -0.0000 0.0580 -0.9983
vt 1.000000 0.000000
vt 0.000000 1.000000
vt 1.000000 1.000000
s 0
usemtl Material.001
f 267/216/49 269/218/49 268/217/49
f 271/216/50 270/217/50 272/218/50
f 267/216/51 271/216/51 272/218/51 269/218/51
f 269/218/52 272/218/52 270/217/52 268/217/52
f 268/217/53 270/217/53 271/216/53 267/216/53
