# Blender 3.6.0
# www.blender.org
mtllib esterni.mtl
o cielo
v 42.928127 -69.893288 -119.739189
v 42.928116 -69.893288 160.405396
v 42.928123 70.179008 -119.739189
v 42.928112 70.179008 160.405396
vn -1.0000 -0.0000 -0.0000
vt 0.000000 0.000000
vt 1.000000 0.000000
vt 1.000000 1.000000
vt 0.000000 1.000000
s 0
usemtl HdrSkySunset007_JPG_2K
f 1/1/1 2/2/1 4/3/1 3/4/1
o grass
v 5.968813 0.000000 -70.992859
v 5.968805 0.000000 74.582962
v 42.928131 0.000000 -70.992859
v 42.928123 0.000000 74.582962
vn -0.0000 1.0000 -0.0000
vt -0.002702 0.000000
vt 1.002702 0.000000
vt 1.002702 1.000000
vt -0.002702 1.000000
s 0
usemtl grass
f 5/5/2 6/6/2 8/7/2 7/8/2
o infissi.esterni
v 5.430130 2.762104 1.996348
v 5.430130 2.762104 5.201309
v 5.512837 2.913167 2.119280
v 5.512837 2.913167 5.078377
v 5.512837 6.059176 2.119279
v 5.512837 6.059176 5.078377
v 5.626334 2.913167 2.119280
v 5.626334 2.913167 5.078377
v 5.626334 6.059176 2.119279
v 5.626334 6.059176 5.078377
v 5.573485 2.913167 2.119280
v 5.573485 2.913167 5.078377
v 5.573485 6.210239 1.996347
v 5.573485 2.762104 1.996348
v 5.573485 6.059176 2.119279
v 5.573485 6.059176 5.078377
v 5.573485 2.762104 5.201309
v 5.573485 6.210239 5.201309
vn -0.0000 1.0000 -0.0000
vn -0.0000 -0.0000 1.0000
vn -0.0000 -0.0000 -1.0000
vn -0.0000 -1.0000 -0.0000
vn 1.0000 -0.0000 -0.0000
vt 0.000000 0.000000
vt 1.000000 0.331252
vt 1.000000 0.668748
vt 1.000000 0.331252
vt 1.000000 0.668748
vt 1.000000 0.251525
vt 1.000000 0.748475
vt 1.000000 0.748475
s 0
usemtl vetro
f 9/9/3 10/9/3 25/9/3 22/9/3
f 11/10/4 15/10/4 17/11/4 13/11/4
f 12/12/3 16/12/3 15/10/3 11/10/3
f 14/13/5 18/13/5 16/12/5 12/12/5
f 13/11/6 17/11/6 18/13/6 14/13/6
f 19/10/7 22/14/7 21/15/7 23/11/7
f 23/11/7 21/15/7 26/16/7 24/13/7
f 24/13/7 26/16/7 25/14/7 20/12/7
o muro.esterno
v 6.212838 2.762104 1.996348
v 6.212838 6.210239 1.996347
v 6.212838 2.762104 5.201309
v 6.212838 6.210239 5.201309
v 5.512837 6.210239 1.996347
v 5.512837 6.210239 5.201309
v 5.512837 2.762104 1.996348
v 5.512837 2.762104 5.201309
v 6.212838 6.210239 3.598828
v 6.212838 6.210239 2.797588
vn -0.0000 -0.0000 -1.0000
vn -0.0000 -0.0000 1.0000
vn -0.0000 -1.0000 -0.0000
vn -0.0000 1.0000 -0.0000
vt 1.000000 0.748475
vt 1.000000 0.251525
vt 1.000000 0.748475
vt 1.000000 0.748475
vt 0.000000 0.000000
s 0
usemtl muro
f 32/17/8 30/17/8 29/18/8 34/18/8
f 33/18/9 27/18/9 28/19/9 31/20/9
f 30/17/10 32/17/10 31/21/10 28/19/10 36/21/10 35/21/10
f 29/18/11 27/18/11 33/21/11 34/18/11
